<svg id="visual" viewBox="0 0 1920 1080" width="1920" height="1080" xmlns="http://www.w3.org/2000/svg" xmlns:xlink="http://www.w3.org/1999/xlink" version="1.1"><path d="M0 163L29.2 159.3C58.3 155.7 116.7 148.3 174.8 143C233 137.7 291 134.3 349.2 123.7C407.3 113 465.7 95 523.8 87.7C582 80.3 640 83.7 698.2 98C756.3 112.3 814.7 137.7 872.8 155.7C931 173.7 989 184.3 1047.2 182.5C1105.3 180.7 1163.7 166.3 1221.8 168.2C1280 170 1338 188 1396.2 177.2C1454.3 166.3 1512.7 126.7 1570.8 114.2C1629 101.7 1687 116.3 1745.2 121.8C1803.3 127.3 1861.7 123.7 1890.8 121.8L1920 120L1920 0L1890.8 0C1861.7 0 1803.3 0 1745.2 0C1687 0 1629 0 1570.8 0C1512.7 0 1454.3 0 1396.2 0C1338 0 1280 0 1221.8 0C1163.7 0 1105.3 0 1047.2 0C989 0 931 0 872.8 0C814.7 0 756.3 0 698.2 0C640 0 582 0 523.8 0C465.7 0 407.3 0 349.2 0C291 0 233 0 174.8 0C116.7 0 58.3 0 29.2 0L0 0Z" fill="#9db2bf"></path><path d="M0 260L29.2 258.2C58.3 256.3 116.7 252.7 174.8 254.5C233 256.3 291 263.7 349.2 260.2C407.3 256.7 465.7 242.3 523.8 228C582 213.7 640 199.3 698.2 217.3C756.3 235.3 814.7 285.7 872.8 305.3C931 325 989 314 1047.2 310.3C1105.3 306.7 1163.7 310.3 1221.8 312.2C1280 314 1338 314 1396.2 305C1454.3 296 1512.7 278 1570.8 278C1629 278 1687 296 1745.2 287C1803.3 278 1861.7 242 1890.8 224L1920 206L1920 118L1890.8 119.8C1861.7 121.7 1803.3 125.3 1745.2 119.8C1687 114.3 1629 99.7 1570.8 112.2C1512.7 124.7 1454.3 164.3 1396.2 175.2C1338 186 1280 168 1221.8 166.2C1163.7 164.3 1105.3 178.7 1047.2 180.5C989 182.3 931 171.7 872.8 153.7C814.7 135.7 756.3 110.3 698.2 96C640 81.7 582 78.3 523.8 85.7C465.7 93 407.3 111 349.2 121.7C291 132.3 233 135.7 174.8 141C116.7 146.3 58.3 153.7 29.2 157.3L0 161Z" fill="#adbfca"></path><path d="M0 465L29.2 461.5C58.3 458 116.7 451 174.8 487C233 523 291 602 349.2 609.2C407.3 616.3 465.7 551.7 523.8 494.2C582 436.7 640 386.3 698.2 393.5C756.3 400.7 814.7 465.3 872.8 497.7C931 530 989 530 1047.2 544.5C1105.3 559 1163.7 588 1221.8 589.8C1280 591.7 1338 566.3 1396.2 566.3C1454.3 566.3 1512.7 591.7 1570.8 580.8C1629 570 1687 523 1745.2 488.7C1803.3 454.3 1861.7 432.7 1890.8 421.8L1920 411L1920 204L1890.8 222C1861.7 240 1803.3 276 1745.2 285C1687 294 1629 276 1570.8 276C1512.7 276 1454.3 294 1396.2 303C1338 312 1280 312 1221.8 310.2C1163.7 308.3 1105.3 304.7 1047.2 308.3C989 312 931 323 872.8 303.3C814.7 283.7 756.3 233.3 698.2 215.3C640 197.3 582 211.7 523.8 226C465.7 240.3 407.3 254.7 349.2 258.2C291 261.7 233 254.3 174.8 252.5C116.7 250.7 58.3 254.3 29.2 256.2L0 258Z" fill="#bdccd6"></path><path d="M0 606L29.2 604.2C58.3 602.3 116.7 598.7 174.8 634.7C233 670.7 291 746.3 349.2 773.3C407.3 800.3 465.7 778.7 523.8 740.8C582 703 640 649 698.2 641.8C756.3 634.7 814.7 674.3 872.8 710.3C931 746.3 989 778.7 1047.2 803.8C1105.3 829 1163.7 847 1221.8 816.3C1280 785.7 1338 706.3 1396.2 701C1454.3 695.7 1512.7 764.3 1570.8 777C1629 789.7 1687 746.3 1745.2 703C1803.3 659.7 1861.7 616.3 1890.8 594.7L1920 573L1920 409L1890.8 419.8C1861.7 430.7 1803.3 452.3 1745.2 486.7C1687 521 1629 568 1570.8 578.8C1512.7 589.7 1454.3 564.3 1396.2 564.3C1338 564.3 1280 589.7 1221.8 587.8C1163.7 586 1105.3 557 1047.2 542.5C989 528 931 528 872.8 495.7C814.7 463.3 756.3 398.7 698.2 391.5C640 384.3 582 434.7 523.8 492.2C465.7 549.7 407.3 614.3 349.2 607.2C291 600 233 521 174.8 485C116.7 449 58.3 456 29.2 459.5L0 463Z" fill="#cdd9e1"></path><path d="M0 1081L29.2 1081C58.3 1081 116.7 1081 174.8 1081C233 1081 291 1081 349.2 1081C407.3 1081 465.7 1081 523.8 1081C582 1081 640 1081 698.2 1081C756.3 1081 814.7 1081 872.8 1081C931 1081 989 1081 1047.2 1081C1105.3 1081 1163.7 1081 1221.8 1081C1280 1081 1338 1081 1396.2 1081C1454.3 1081 1512.7 1081 1570.8 1081C1629 1081 1687 1081 1745.2 1081C1803.3 1081 1861.7 1081 1890.8 1081L1920 1081L1920 571L1890.8 592.7C1861.7 614.3 1803.3 657.7 1745.2 701C1687 744.3 1629 787.7 1570.8 775C1512.7 762.3 1454.3 693.7 1396.2 699C1338 704.3 1280 783.7 1221.8 814.3C1163.7 845 1105.3 827 1047.2 801.8C989 776.7 931 744.3 872.8 708.3C814.7 672.3 756.3 632.7 698.2 639.8C640 647 582 701 523.8 738.8C465.7 776.7 407.3 798.3 349.2 771.3C291 744.3 233 668.7 174.8 632.7C116.7 596.7 58.3 600.3 29.2 602.2L0 604Z" fill="#dde6ed"></path></svg>